<?xml version="1.0" encoding="UTF-8"?><svg id="b" xmlns="http://www.w3.org/2000/svg" xmlns:xlink="http://www.w3.org/1999/xlink" viewBox="0 0 213 240"><defs><linearGradient id="d" x1="0" y1="120" x2="213" y2="120" gradientUnits="userSpaceOnUse"><stop offset="0" stop-color="#523a8f"/><stop offset=".5" stop-color="#3562aa"/><stop offset="1" stop-color="#2fafd9"/></linearGradient></defs><g id="c"><path id="e" d="m204.88,186.15l-18.32-19.93v-92.7L106.5,27.03l-17.13,10.01v151.14l-30.22-17.45V23.81c5.1-2.96,36.57-21.23,36.57-21.23,2.96-1.72,6.87-2.58,10.78-2.58s7.81.86,10.78,2.58l84.95,49.32c5.93,3.44,10.78,11.89,10.78,18.77v98.65c0,5.82-3.47,12.74-8.12,16.83Zm-78.42-66.15l39.94-43.33-25.41-14.68-51.61,58.01,60.4,67.84-43.28,25.13-80.06-46.48v-92.97l19.37-11.25v-30.71c-2.54,1.48-5.01,2.91-7.1,4.12l-27.94,16.22c-5.93,3.44-10.78,11.89-10.78,18.77v98.65c0,6.88,4.85,15.33,10.78,18.77l84.95,49.32c2.96,1.72,6.87,2.58,10.78,2.58s7.81-.86,10.78-2.58l76.5-44.42-67.32-73Z" fill="url(#d)"/></g></svg>